name C:\Users\antoi\Documents\MyRepositories\upper-imu-dc\Results\main_tracking\Case_92\kinematics.mot
datacolumns 43
datarows 4
range 3.00000000 3.06000000
endheader 
time	clav_prot	clav_elev	scapula_abduction	scapula_elevation	scapula_upward_rot	scapula_winging	plane_elv	shoulder_elv	axial_rot	TrapeziusScapula_M/activation	TrapeziusScapula_S/activation	TrapeziusScapula_I/activation	TrapeziusClavicle_S/activation	SerratusAnterior_I/activation	SerratusAnterior_M/activation	SerratusAnterior_S/activation	Rhomboideus_S/activation	Rhomboideus_I/activation	LevatorScapulae/activation	Coracobrachialis/activation	DeltoideusClavicle_A/activation	DeltoideusScapula_P/activation	DeltoideusScapula_M/activation	LatissimusDorsi_S/activation	LatissimusDorsi_M/activation	LatissimusDorsi_I/activation	PectoralisMajorClavicle_S/activation	PectoralisMajorThorax_I/activation	PectoralisMajorThorax_M/activation	TeresMajor/activation	Infraspinatus_I/activation	Infraspinatus_S/activation	PectoralisMinor/activation	TeresMinor/activation	Subscapularis_S/activation	Subscapularis_M/activation	Subscapularis_I/activation	Supraspinatus_P/activation	Supraspinatus_A/activation	TRIlong/activation	BIC_long/activation	BIC_brevis/activation	
          3.00000000	        -22.08909922	         -6.66584521	        -11.23806654	         -5.53457334	         11.93488697	          6.45087364	        -29.58868749	         14.49022637	         50.83057134	          0.01014250	          0.01015227	          0.01011607	          0.01236569	          0.01528973	          0.03219203	          0.03398952	          0.01048769	          0.01018522	          0.01719305	          0.01321670	          0.01094661	          0.01863887	          0.01025132	          0.01043800	          0.01048906	          0.01133995	          0.01341795	          0.03687799	          0.03122244	          0.08194615	          0.01026668	          0.01034832	          0.01058419	          0.01058862	          0.04449299	          0.04163259	          0.06302633	          0.01118101	          0.01122578	          0.08617302	          0.01067130	          0.01347755	
          3.02000000	        -21.99102616	         -6.67429824	        -11.90354671	         -5.37048415	         11.28284058	          6.61713014	        -27.90051206	         14.82726169	         49.25438711	          0.01116985	          0.01053650	          0.01067627	          0.01114374	          0.01154030	          0.02419657	          0.02630490	          0.01739419	          0.07146918	          0.03908256	          0.01140200	          0.01058758	          0.09621386	          0.01124552	          0.01612079	          0.01799651	          0.01345842	          0.01090322	          0.03690244	          0.02371545	          0.09857221	          0.01033632	          0.01051776	          0.05080563	          0.01083132	          0.03954033	          0.04465385	          0.07535285	          0.01154176	          0.01107201	          0.12195187	          0.01063507	          0.01118894	
          3.04000000	        -22.14125838	         -6.68245612	        -12.47739007	         -5.23400244	         10.71513334	          6.76471577	        -26.30330337	         15.20183645	         47.64957016	          0.01063628	          0.01034728	          0.01037779	          0.01104510	          0.01020998	          0.01824503	          0.02432773	          0.01732187	          0.06488315	          0.04702877	          0.01092987	          0.01057616	          0.09622102	          0.01377627	          0.01531009	          0.01700822	          0.01355036	          0.01072593	          0.03828124	          0.01839097	          0.09436304	          0.01034138	          0.01054406	          0.04715250	          0.01081493	          0.03628691	          0.04370478	          0.07481903	          0.01143580	          0.01091822	          0.11824142	          0.01059294	          0.01078955	
          3.06000000	        -22.27817359	         -6.68744710	        -12.99358529	         -5.10871411	         10.20543420	          6.89587051	        -24.80354751	         15.61510682	         46.02140086	          0.01055249	          0.01032921	          0.01033595	          0.01108668	          0.01026899	          0.01389922	          0.02512672	          0.01706099	          0.06437683	          0.04975868	          0.01087806	          0.01058727	          0.09799677	          0.01730051	          0.01459405	          0.01609667	          0.01351775	          0.01075840	          0.03729871	          0.01554382	          0.08983625	          0.01036034	          0.01057985	          0.04444959	          0.01084144	          0.03381177	          0.04222400	          0.07250422	          0.01141786	          0.01089823	          0.11475354	          0.01060455	          0.01074635	
